<svg version="1.1" id="Layer_1" xmlns="http://www.w3.org/2000/svg" xmlns:xlink="http://www.w3.org/1999/xlink" x="0px" y="0px"
	 width="100%" viewBox="0 0 356 340" enable-background="new 0 0 356 340" xml:space="preserve">
<path fill="#FFFEFE" opacity="1.000000" stroke="none" 
	d="
M200.000000,341.000000 
	C133.333344,341.000000 67.166687,341.000000 1.000027,341.000000 
	C1.000018,227.666702 1.000018,114.333397 1.000009,1.000072 
	C119.666618,1.000048 238.333237,1.000048 356.999878,1.000024 
	C356.999939,114.333260 356.999939,227.666519 356.999969,340.999878 
	C304.833344,341.000000 252.666672,341.000000 200.000000,341.000000 
M116.940521,27.022144 
	C116.940521,27.022144 117.116219,26.933794 116.883240,27.841438 
	C117.422592,48.301403 110.033508,67.246323 104.717621,87.924744 
	C123.731117,71.428596 144.761978,62.730583 169.201172,59.814304 
	C159.291550,54.576614 150.169418,50.444141 141.791992,45.136307 
	C133.168777,39.672729 125.271637,33.063221 116.940521,27.022144 
M118.196259,246.338272 
	C152.723724,271.625946 189.618713,275.523041 226.795151,254.397446 
	C263.494232,233.543121 279.689575,200.034058 274.708191,158.195999 
	C270.406586,122.067406 250.373596,95.742760 216.722336,81.542465 
	C182.385559,67.052910 149.239502,71.376183 119.586258,93.907799 
	C69.789177,131.745422 69.162933,204.556870 118.196259,246.338272 
M249.055511,256.396027 
	C231.543030,270.620178 211.397491,278.614258 188.119629,281.270874 
	C207.088486,291.239716 225.958847,299.226929 239.941727,313.036957 
	C241.136459,304.901001 241.947601,296.156158 243.795547,287.636200 
	C245.939560,277.751251 249.027710,268.072693 251.612411,258.279816 
	C251.957855,256.971008 253.800659,253.769028 249.055511,256.396027 
M167.444000,280.990173 
	C145.244965,278.612610 125.551521,269.836151 107.097198,255.675751 
	C113.769623,276.390869 121.135574,295.140839 121.291206,315.797089 
	C135.391678,300.543060 154.208984,292.299225 172.873962,281.333435 
	C170.418686,281.176819 169.339783,281.108002 167.444000,280.990173 
M186.870895,58.209663 
	C184.140411,60.290798 186.572250,59.839123 187.735153,59.938541 
	C204.033356,61.331879 219.348572,65.996506 233.525970,74.125214 
	C239.075745,77.307205 244.283768,81.085220 250.290665,85.012283 
	C244.031647,65.379730 236.934372,46.619106 236.005783,25.967579 
	C221.661835,40.077229 204.445770,48.774487 186.870895,58.209663 
M56.955139,201.405777 
	C50.773911,212.530289 44.743469,223.758545 35.431011,232.327347 
	C56.010860,232.009613 75.170181,239.007645 94.968460,243.912933 
	C79.694916,225.610336 70.998207,204.665298 68.066658,180.017136 
	C64.006706,187.818710 60.643978,194.280502 56.955139,201.405777 
M301.874664,137.382568 
	C307.918945,127.954689 313.963196,118.526810 319.231873,110.308746 
	C301.182495,106.256966 282.048004,101.961594 262.423340,97.556190 
	C277.888031,115.642044 286.772308,136.596100 289.487122,161.239105 
	C293.890289,152.727707 297.694489,145.374130 301.874664,137.382568 
M269.789642,240.260147 
	C287.301208,234.680893 304.631866,228.328629 323.895111,227.889221 
	C308.663666,213.458603 300.356415,194.931412 289.599304,176.380798 
	C287.908722,201.194260 279.477173,222.035324 264.448364,241.312927 
	C266.839539,240.896591 267.949310,240.703369 269.789642,240.260147 
M73.062859,136.747314 
	C79.003067,124.473198 84.943268,112.199074 90.857773,99.978043 
	C72.632576,105.341270 54.142986,112.966583 33.698177,113.097710 
	C48.855152,127.550308 57.211231,146.107788 67.618439,164.087051 
	C68.411797,159.034515 68.935196,154.780792 69.777313,150.591156 
	C70.658623,146.206528 71.846199,141.883438 73.062859,136.747314 
M236.496170,24.629326 
	C236.496170,24.629326 236.542236,24.551458 236.496170,24.629326 
z"/>
<path fill="#F18A2E" opacity="1.000000" stroke="none" 
	d="
M117.918922,246.115341 
	C69.162933,204.556870 69.789177,131.745422 119.586258,93.907799 
	C149.239502,71.376183 182.385559,67.052910 216.722336,81.542465 
	C250.373596,95.742760 270.406586,122.067406 274.708191,158.195999 
	C279.689575,200.034058 263.494232,233.543121 226.795151,254.397446 
	C189.618713,275.523041 152.723724,271.625946 117.918922,246.115341 
z"/>
<path fill="#F18C32" opacity="1.000000" stroke="none" 
	d="
M249.359314,256.179260 
	C253.800659,253.769028 251.957855,256.971008 251.612411,258.279816 
	C249.027710,268.072693 245.939560,277.751251 243.795547,287.636200 
	C241.947601,296.156158 241.136459,304.901001 239.941727,313.036957 
	C225.958847,299.226929 207.088486,291.239716 188.119629,281.270874 
	C211.397491,278.614258 231.543030,270.620178 249.359314,256.179260 
z"/>
<path fill="#F18C32" opacity="1.000000" stroke="none" 
	d="
M167.852448,281.014679 
	C169.339783,281.108002 170.418686,281.176819 172.873962,281.333435 
	C154.208984,292.299225 135.391678,300.543060 121.291206,315.797089 
	C121.135574,295.140839 113.769623,276.390869 107.097198,255.675751 
	C125.551521,269.836151 145.244965,278.612610 167.852448,281.014679 
z"/>
<path fill="#F18C32" opacity="1.000000" stroke="none" 
	d="
M187.193115,58.059227 
	C204.445770,48.774487 221.661835,40.077229 236.005783,25.967579 
	C236.934372,46.619106 244.031647,65.379730 250.290665,85.012283 
	C244.283768,81.085220 239.075745,77.307205 233.525970,74.125214 
	C219.348572,65.996506 204.033356,61.331879 187.735153,59.938541 
	C186.572250,59.839123 184.140411,60.290798 187.193115,58.059227 
z"/>
<path fill="#F18C32" opacity="1.000000" stroke="none" 
	d="
M57.118195,201.074036 
	C60.643978,194.280502 64.006706,187.818710 68.066658,180.017136 
	C70.998207,204.665298 79.694916,225.610336 94.968460,243.912933 
	C75.170181,239.007645 56.010860,232.009613 35.431011,232.327347 
	C44.743469,223.758545 50.773911,212.530289 57.118195,201.074036 
z"/>
<path fill="#F18C32" opacity="1.000000" stroke="none" 
	d="
M301.686676,137.701569 
	C297.694489,145.374130 293.890289,152.727707 289.487122,161.239105 
	C286.772308,136.596100 277.888031,115.642044 262.423340,97.556190 
	C282.048004,101.961594 301.182495,106.256966 319.231873,110.308746 
	C313.963196,118.526810 307.918945,127.954689 301.686676,137.701569 
z"/>
<path fill="#F18C32" opacity="1.000000" stroke="none" 
	d="
M269.424377,240.385132 
	C267.949310,240.703369 266.839539,240.896591 264.448364,241.312927 
	C279.477173,222.035324 287.908722,201.194260 289.599304,176.380798 
	C300.356415,194.931412 308.663666,213.458603 323.895111,227.889221 
	C304.631866,228.328629 287.301208,234.680893 269.424377,240.385132 
z"/>
<path fill="#F18C32" opacity="1.000000" stroke="none" 
	d="
M117.056786,26.955132 
	C125.271637,33.063221 133.168777,39.672729 141.791992,45.136307 
	C150.169418,50.444141 159.291550,54.576614 169.201172,59.814304 
	C144.761978,62.730583 123.731117,71.428596 104.717621,87.924744 
	C110.033508,67.246323 117.422592,48.301403 116.981628,27.393066 
	C117.080025,26.944693 117.056786,26.955130 117.056786,26.955132 
z"/>
<path fill="#F18C32" opacity="1.000000" stroke="none" 
	d="
M72.981384,137.140381 
	C71.846199,141.883438 70.658623,146.206528 69.777313,150.591156 
	C68.935196,154.780792 68.411797,159.034515 67.618439,164.087051 
	C57.211231,146.107788 48.855152,127.550308 33.698177,113.097710 
	C54.142986,112.966583 72.632576,105.341270 90.857773,99.978043 
	C84.943268,112.199074 79.003067,124.473198 72.981384,137.140381 
z"/>
<path fill="#F18C32" opacity="1.000000" stroke="none" 
	d="
M236.519196,24.590393 
	C236.542236,24.551458 236.496170,24.629326 236.519196,24.590393 
z"/>
<path fill="#F18C32" opacity="1.000000" stroke="none" 
	d="
M117.098122,26.939243 
	C117.116219,26.933794 116.940521,27.022144 116.998657,26.988636 
	C117.056786,26.955130 117.080025,26.944693 117.098122,26.939243 
z"/>
</svg>